<svg width="1800" height="600" viewBox="0 0 1800 600" fill="none" xmlns="http://www.w3.org/2000/svg">
<g clip-path="url(#clip0_7_148)">
<path d="M672.781 264.5V368H645.781V264.5H609.601V242.36H708.961V264.5H672.781ZM827.511 368L819.591 337.76H785.211L777.471 368H750.111L784.131 242.36H822.291L856.311 368H827.511ZM803.211 268.46H801.771L789.531 315.98H815.451L803.211 268.46ZM906.821 368V242.36H955.421C961.541 242.36 967.001 243.32 971.801 245.24C976.601 247.04 980.621 249.68 983.861 253.16C987.221 256.64 989.741 260.84 991.421 265.76C993.101 270.68 993.941 276.2 993.941 282.32C993.941 288.44 993.101 293.96 991.421 298.88C989.741 303.8 987.221 308 983.861 311.48C980.621 314.96 976.601 317.66 971.801 319.58C967.001 321.38 961.541 322.28 955.421 322.28H934.001V368H906.821ZM934.001 300.5H948.581C954.941 300.5 959.321 299.3 961.721 296.9C964.241 294.5 965.501 290.54 965.501 285.02V279.62C965.501 274.1 964.241 270.14 961.721 267.74C959.321 265.34 954.941 264.14 948.581 264.14H934.001V300.5ZM1051.47 368V242.36H1131.75V264.5H1078.47V293.3H1129.95V315.44H1078.47V345.86H1131.75V368H1051.47ZM1233.02 370.16C1222.46 370.16 1213.28 368.42 1205.48 364.94C1197.68 361.46 1191.38 356.72 1186.58 350.72L1202.24 333.44C1206.8 338.48 1211.78 342.2 1217.18 344.6C1222.7 347 1228.28 348.2 1233.92 348.2C1240.4 348.2 1245.32 346.76 1248.68 343.88C1252.04 341 1253.72 336.86 1253.72 331.46C1253.72 327.02 1252.4 323.66 1249.76 321.38C1247.24 319.1 1242.92 317.48 1236.8 316.52L1223.66 314.36C1212.38 312.44 1204.22 308.3 1199.18 301.94C1194.14 295.46 1191.62 287.6 1191.62 278.36C1191.62 266.24 1195.58 256.88 1203.5 250.28C1211.42 243.56 1222.52 240.2 1236.8 240.2C1246.52 240.2 1254.98 241.7 1262.18 244.7C1269.38 247.7 1275.2 251.78 1279.64 256.94L1264.34 274.04C1260.98 270.32 1257.02 267.44 1252.46 265.4C1247.9 263.24 1242.74 262.16 1236.98 262.16C1224.86 262.16 1218.8 267.14 1218.8 277.1C1218.8 281.42 1220.12 284.66 1222.76 286.82C1225.52 288.98 1229.96 290.6 1236.08 291.68L1249.22 294.02C1259.42 295.82 1267.28 299.66 1272.8 305.54C1278.32 311.42 1281.08 319.34 1281.08 329.3C1281.08 335.18 1280.06 340.64 1278.02 345.68C1275.98 350.6 1272.92 354.92 1268.84 358.64C1264.76 362.24 1259.72 365.06 1253.72 367.1C1247.84 369.14 1240.94 370.16 1233.02 370.16ZM1392.43 264.5V368H1365.43V264.5H1329.25V242.36H1428.61V264.5H1392.43ZM1509.18 368H1482.54V242.36H1531.14C1537.26 242.36 1542.72 243.32 1547.52 245.24C1552.32 247.04 1556.34 249.68 1559.58 253.16C1562.94 256.64 1565.46 260.84 1567.14 265.76C1568.82 270.68 1569.66 276.2 1569.66 282.32C1569.66 291.2 1567.74 298.82 1563.9 305.18C1560.06 311.54 1554.6 315.74 1547.52 317.78L1572.18 368H1542.66L1521.6 321.38H1509.18V368ZM1524.66 300.5C1531.02 300.5 1535.4 299.3 1537.8 296.9C1540.32 294.5 1541.58 290.54 1541.58 285.02V279.62C1541.58 274.1 1540.32 270.14 1537.8 267.74C1535.4 265.34 1531.02 264.14 1524.66 264.14H1509.18V300.5H1524.66ZM1653.29 368V323.54L1613.51 242.36H1643.57L1656.89 271.52L1666.61 296.18H1668.05L1677.77 271.52L1691.09 242.36H1720.07L1680.29 323.54V368H1653.29Z" fill="#0040BA"/>
<rect x="75" y="167.039" width="32.0388" height="450" transform="rotate(-90 75 167.039)" fill="#0040BA"/>
<rect x="75" y="366.039" width="32.0388" height="450" transform="rotate(-90 75 366.039)" fill="#0040BA"/>
<rect x="125" y="75" width="31.8182" height="450" fill="#D9D9D9"/>
<rect x="125" y="75" width="31.8182" height="450" fill="#D9D9D9"/>
<rect x="231" y="75" width="31.8182" height="450" fill="#D9D9D9"/>
<rect x="337" y="75" width="31.8182" height="450" fill="#D9D9D9"/>
<rect x="443" y="75" width="31.8182" height="450" fill="#D9D9D9"/>
<rect x="337" y="100" width="31.8182" height="400" fill="#D9D9D9"/>
<rect x="75" y="266.039" width="32.0388" height="450" transform="rotate(-90 75 266.039)" fill="#0040BA"/>
<rect x="75" y="465.039" width="32.0388" height="450" transform="rotate(-90 75 465.039)" fill="#0040BA"/>
<rect x="231" y="100" width="31.8182" height="400" fill="#D9D9D9"/>
<rect x="443" y="100" width="31.8182" height="400" fill="#D9D9D9"/>
<rect x="186" y="167" width="32" height="114" transform="rotate(-90 186 167)" fill="#0040BA"/>
<rect x="391" y="167" width="32" height="114" transform="rotate(-90 391 167)" fill="#0040BA"/>
<rect x="186" y="366" width="32" height="114" transform="rotate(-90 186 366)" fill="#0040BA"/>
<rect x="398" y="366" width="32" height="114" transform="rotate(-90 398 366)" fill="#0040BA"/>
</g>
<defs>
<clipPath id="clip0_7_148">
<rect width="1800" height="600" fill="white"/>
</clipPath>
</defs>
</svg>
