<svg width="3093" height="600" viewBox="0 0 3093 600" fill="none" xmlns="http://www.w3.org/2000/svg">
<g clip-path="url(#clip0_10_305)">
<rect x="300" y="34.2019" width="100" height="903.262" transform="rotate(-20 300 34.2019)" fill="#D9D9D9"/>
<rect x="-1" y="100" width="100" height="600" transform="rotate(-90 -1 100)" fill="#0040BA"/>
<rect x="-1" y="100" width="100" height="600" transform="rotate(-90 -1 100)" fill="#0040BA"/>
<rect x="250" width="100" height="600" fill="#0040BA"/>
<rect x="342.97" y="-153.941" width="124.538" height="1103.08" transform="rotate(20 342.97 -153.941)" fill="#D9D9D9"/>
<path d="M697.977 600V125.36H881.577C904.697 125.36 925.324 128.987 943.457 136.24C961.59 143.04 976.777 153.013 989.017 166.16C1001.71 179.307 1011.23 195.173 1017.58 213.76C1023.92 232.347 1027.1 253.2 1027.1 276.32C1027.1 299.44 1023.92 320.293 1017.58 338.88C1011.23 357.467 1001.71 373.333 989.017 386.48C976.777 399.627 961.59 409.827 943.457 417.08C925.324 423.88 904.697 427.28 881.577 427.28H800.657V600H697.977ZM800.657 345H855.737C879.764 345 896.31 340.467 905.377 331.4C914.897 322.333 919.657 307.373 919.657 286.52V266.12C919.657 245.267 914.897 230.307 905.377 221.24C896.31 212.173 879.764 207.64 855.737 207.64H800.657V345ZM1108.43 600V125.36H1411.71V209H1210.43V317.8H1404.91V401.44H1210.43V516.36H1411.71V600H1108.43ZM1658.29 608.16C1618.39 608.16 1583.71 601.587 1554.25 588.44C1524.78 575.293 1500.98 557.387 1482.85 534.72L1542.01 469.44C1559.23 488.48 1578.05 502.533 1598.45 511.6C1619.3 520.667 1640.38 525.2 1661.69 525.2C1686.17 525.2 1704.75 519.76 1717.45 508.88C1730.14 498 1736.49 482.36 1736.49 461.96C1736.49 445.187 1731.5 432.493 1721.53 423.88C1712.01 415.267 1695.69 409.147 1672.57 405.52L1622.93 397.36C1580.31 390.107 1549.49 374.467 1530.45 350.44C1511.41 325.96 1501.89 296.267 1501.89 261.36C1501.89 215.573 1516.85 180.213 1546.77 155.28C1576.69 129.893 1618.62 117.2 1672.57 117.2C1709.29 117.2 1741.25 122.867 1768.45 134.2C1795.65 145.533 1817.63 160.947 1834.41 180.44L1776.61 245.04C1763.91 230.987 1748.95 220.107 1731.73 212.4C1714.5 204.24 1695.01 200.16 1673.25 200.16C1627.46 200.16 1604.57 218.973 1604.57 256.6C1604.57 272.92 1609.55 285.16 1619.53 293.32C1629.95 301.48 1646.73 307.6 1669.85 311.68L1719.49 320.52C1758.02 327.32 1787.71 341.827 1808.57 364.04C1829.42 386.253 1839.85 416.173 1839.85 453.8C1839.85 476.013 1835.99 496.64 1828.29 515.68C1820.58 534.267 1809.02 550.587 1793.61 564.64C1778.19 578.24 1759.15 588.893 1736.49 596.6C1714.27 604.307 1688.21 608.16 1658.29 608.16ZM2124.5 209V600H2022.5V209H1885.82V125.36H2261.18V209H2124.5ZM2429.55 600H2328.91V125.36H2512.51C2535.63 125.36 2556.26 128.987 2574.39 136.24C2592.53 143.04 2607.71 153.013 2619.95 166.16C2632.65 179.307 2642.17 195.173 2648.51 213.76C2654.86 232.347 2658.03 253.2 2658.03 276.32C2658.03 309.867 2650.78 338.653 2636.27 362.68C2621.77 386.707 2601.14 402.573 2574.39 410.28L2667.55 600H2556.03L2476.47 423.88H2429.55V600ZM2488.03 345C2512.06 345 2528.61 340.467 2537.67 331.4C2547.19 322.333 2551.95 307.373 2551.95 286.52V266.12C2551.95 245.267 2547.19 230.307 2537.67 221.24C2528.61 212.173 2512.06 207.64 2488.03 207.64H2429.55V345H2488.03ZM2837.97 600V432.04L2687.69 125.36H2801.25L2851.57 235.52L2888.29 328.68H2893.73L2930.45 235.52L2980.77 125.36H3090.25L2939.97 432.04V600H2837.97Z" fill="white"/>
<rect x="-1" y="100" width="100" height="600" transform="rotate(-90 -1 100)" fill="#0040BA"/>
<rect x="232" y="477" width="130" height="256" transform="rotate(-90 232 477)" fill="white"/>
<rect x="342.97" y="-153.941" width="130" height="1103.08" transform="rotate(20 342.97 -153.941)" fill="white"/>
<rect x="235" width="130" height="600" fill="#0040BA"/>
<rect x="-197" y="130" width="130" height="3290" transform="rotate(-90 -197 130)" fill="#0040BA"/>
<rect x="234.821" y="-70.6857" width="130" height="1011.97" transform="rotate(-20 234.821 -70.6857)" fill="white"/>
</g>
<defs>
<clipPath id="clip0_10_305">
<rect width="3093" height="600" fill="white"/>
</clipPath>
</defs>
</svg>
