<svg width="425" height="400" viewBox="0 0 425 400" fill="none" xmlns="http://www.w3.org/2000/svg">
<rect y="67.0388" width="32.0388" height="425" transform="rotate(-90 0 67.0388)" fill="#60A5FA"/>
<rect y="265.68" width="32.0388" height="425" transform="rotate(-90 0 265.68)" fill="#60A5FA"/>
<rect x="38" width="31.8182" height="400" fill="#18181B"/>
<rect x="250" width="31.8182" height="400" fill="#18181B"/>
<rect y="166.359" width="32.0388" height="425" transform="rotate(-90 0 166.359)" fill="#60A5FA"/>
<rect y="365" width="32.0388" height="425" transform="rotate(-90 0 365)" fill="#60A5FA"/>
<rect x="144" width="31.8182" height="400" fill="#18181B"/>
<rect x="356" width="31.8182" height="400" fill="#18181B"/>
<rect x="99" y="67" width="32" height="114" transform="rotate(-90 99 67)" fill="#60A5FA"/>
<rect x="304" y="67" width="32" height="114" transform="rotate(-90 304 67)" fill="#60A5FA"/>
<rect x="99" y="266" width="32" height="114" transform="rotate(-90 99 266)" fill="#60A5FA"/>
<rect x="311" y="266" width="32" height="114" transform="rotate(-90 311 266)" fill="#60A5FA"/>
</svg>
